<svg xmlns="http://www.w3.org/2000/svg" width="256" height="256" viewBox="0 0 256 256">
  <rect width="256" height="256" rx="48" fill="#3f51b5"/>
  <g transform="translate(38,38) scale(7.5)" fill="#ffffff">
    <!-- left outer bracket [ -->
    <rect x="2.0" y="4" width="1.3" height="16"/>
    <rect x="2.0" y="4" width="2.6" height="1.3"/>
    <rect x="2.0" y="18.7" width="2.6" height="1.3"/>
    <!-- left inner bracket [ -->
    <rect x="5.0" y="4" width="1.3" height="16"/>
    <rect x="5.0" y="4" width="2.6" height="1.3"/>
    <rect x="5.0" y="18.7" width="2.6" height="1.3"/>
    <!-- hash # -->
    <rect x="10.0" y="7" width="1.2" height="10"/>
    <rect x="12.8" y="7" width="1.2" height="10"/>
    <rect x="8.8" y="9.8" width="6.4" height="1.2"/>
    <rect x="8.8" y="13.0" width="6.4" height="1.2"/>
    <!-- right inner bracket ] -->
    <rect x="17.7" y="4" width="1.3" height="16"/>
    <rect x="16.4" y="4" width="2.6" height="1.3"/>
    <rect x="16.4" y="18.7" width="2.6" height="1.3"/>
    <!-- right outer bracket ] -->
    <rect x="20.7" y="4" width="1.3" height="16"/>
    <rect x="19.4" y="4" width="2.6" height="1.3"/>
    <rect x="19.4" y="18.7" width="2.6" height="1.3"/>
  </g>
</svg>
